HIERARCHY
ROOT root
{
	OFFSET 0.000000 0.000000 0.000000
	CHANNELS 6 Xposition Yposition Zposition Zrotation Yrotation Xrotation
	JOINT lhip
	{
		OFFSET 0.058581 -0.082280 -0.017664
		CHANNELS 3 Zrotation Yrotation Xrotation
		JOINT lknee
		{
			OFFSET 0.043451 -0.386469 0.008037
			CHANNELS 3 Zrotation Yrotation Xrotation
			JOINT lankle
			{
				OFFSET -0.014790 -0.426874 -0.037428
				CHANNELS 3 Zrotation Yrotation Xrotation
				JOINT ltoe
				{
					OFFSET 0.041054 -0.060286 0.122042
					CHANNELS 3 Zrotation Yrotation Xrotation
					End Site
					{
						OFFSET 0.000000 0.000000 0.000000
					}
				}
			}
		}
	}
	JOINT rhip
	{
		OFFSET -0.060310 -0.090513 -0.013543
		CHANNELS 3 Zrotation Yrotation Xrotation
		JOINT rknee
		{
			OFFSET -0.043257 -0.383688 -0.004843
			CHANNELS 3 Zrotation Yrotation Xrotation
			JOINT rankle
			{
				OFFSET 0.019056 -0.420046 -0.034562
				CHANNELS 3 Zrotation Yrotation Xrotation
				JOINT rtoe
				{
					OFFSET -0.034840 -0.062106 0.130323
					CHANNELS 3 Zrotation Yrotation Xrotation
					End Site
					{
						OFFSET 0.000000 0.000000 0.000000
					}
				}
			}
		}
	}
	JOINT lowerback
	{
		OFFSET 0.004439 0.124404 -0.038385
		CHANNELS 3 Zrotation Yrotation Xrotation
		JOINT upperback
		{
			OFFSET 0.004488 0.137956 0.026820
			CHANNELS 3 Zrotation Yrotation Xrotation
			JOINT chest
			{
				OFFSET -0.002265 0.056032 0.002855
				CHANNELS 3 Zrotation Yrotation Xrotation
				JOINT lowerneck
				{
					OFFSET -0.013390 0.211636 -0.033468
					CHANNELS 3 Zrotation Yrotation Xrotation
					JOINT upperneck
					{
						OFFSET 0.010113 0.088937 0.050410
						CHANNELS 3 Zrotation Yrotation Xrotation
						End Site
						{
							OFFSET 0.000000 0.000000 0.000000
						}
					}
				}
				JOINT lclavicle
				{
					OFFSET 0.071702 0.114000 -0.018898
					CHANNELS 3 Zrotation Yrotation Xrotation
					JOINT lshoulder
					{
						OFFSET 0.122921 0.045205 -0.019046
						CHANNELS 3 Zrotation Yrotation Xrotation
						JOINT lelbow
						{
							OFFSET 0.255332 -0.015649 -0.022946
							CHANNELS 3 Zrotation Yrotation Xrotation
							JOINT lwrist
							{
								OFFSET 0.265709 0.012698 -0.007375
								CHANNELS 3 Zrotation Yrotation Xrotation
								End Site
								{
									OFFSET 0.000000 0.000000 0.000000
								}
							}
						}
					}
				}
				JOINT rclavicle
				{
					OFFSET -0.082954 0.112472 -0.023707
					CHANNELS 3 Zrotation Yrotation Xrotation
					JOINT rshoulder
					{
						OFFSET -0.113228 0.046853 -0.008472
						CHANNELS 3 Zrotation Yrotation Xrotation
						JOINT relbow
						{
							OFFSET -0.260127 -0.014369 -0.031269
							CHANNELS 3 Zrotation Yrotation Xrotation
							JOINT rwrist
							{
								OFFSET -0.269108 0.006794 -0.006027
								CHANNELS 3 Zrotation Yrotation Xrotation
								End Site
								{
									OFFSET 0.000000 0.000000 0.000000
								}
							}
						}
					}
				}
			}
		}
	}
}
MOTION
Frames: 14
Frame Time: 0.033333
0.015024 0.240898 1.013189 80.974302 -0.890690 84.083229 5.128832 4.282927 8.240441 -3.824104 -0.284846 2.226271 -1.991618 16.733810 -4.330807 0.000000 -0.000000 0.000000 -2.590106 -4.682043 2.241329 0.987372 0.616207 7.204844 4.335192 -9.495883 -4.174853 0.000000 -0.000000 0.000000 -1.108128 -0.185920 12.278211 -1.949942 -1.183878 3.895616 1.398731 -0.671163 3.172694 -7.468788 -4.360453 1.546341 4.279617 7.541529 6.757543 -16.662274 5.509337 11.266700 -58.723386 10.099115 17.722648 -24.098234 -58.714903 8.084887 23.952179 13.416687 -64.905477 13.520836 1.298270 4.913842 60.083967 -3.668064 22.290783 17.563180 47.282673 -0.138197 4.066252 -6.093887 -50.413489 
0.014758 0.239203 1.013114 80.711376 -0.953521 84.072848 5.172210 4.442110 8.341677 -3.809879 -0.261100 2.156819 -2.020240 16.769723 -4.277730 0.000000 -0.000000 0.000000 -2.538018 -4.519987 2.202915 0.979162 0.732595 7.267680 4.403590 -9.416659 -4.265065 0.000000 -0.000000 0.000000 -1.067183 -0.279571 12.248981 -1.905205 -1.149050 3.920148 1.368713 -0.541455 3.273599 -7.411951 -3.814491 2.069577 4.214369 7.954210 7.075374 -16.498244 5.658768 11.078467 -58.969551 9.868704 17.565955 -23.964813 -58.205228 8.070904 23.690030 13.077404 -64.611090 13.357663 1.053810 4.898869 60.484922 -3.646478 22.279319 16.950746 47.233585 -0.528039 3.945606 -5.843617 -50.510260 
0.014400 0.237544 1.013223 80.437308 -0.975971 84.041674 5.235742 4.538336 8.465165 -3.757004 -0.151212 2.092648 -2.041389 16.801615 -4.181064 0.000000 -0.000000 0.000000 -2.454425 -4.434576 2.186258 1.005582 0.838786 7.319972 4.340369 -9.280537 -4.285539 0.000000 -0.000000 0.000000 -0.933103 -0.279458 12.328067 -1.907519 -1.075104 3.927528 1.321093 -0.521144 3.338955 -7.322982 -3.367853 2.431686 4.315675 8.314939 7.340672 -16.499806 5.738074 11.048992 -59.148390 9.746551 17.383278 -23.581444 -58.021633 8.080569 23.688755 12.818902 -64.467661 13.240098 0.901934 4.855756 60.795120 -3.741632 22.174232 16.613588 47.340098 -0.558405 3.950213 -5.714167 -50.865853 
0.013936 0.235303 1.013191 80.283189 -0.995235 84.042486 5.378410 4.621099 8.475299 -3.744654 -0.084730 2.092549 -2.118579 16.800563 -4.144544 0.000000 -0.000000 0.000000 -2.306801 -4.395189 2.164083 0.979262 0.790968 7.326654 4.254804 -9.166499 -4.295490 0.000000 -0.000000 0.000000 -0.811426 -0.330416 12.349272 -1.891741 -1.015163 3.959884 1.282889 -0.447126 3.381142 -7.087949 -2.881456 2.931752 4.386314 8.759813 7.729793 -16.469306 5.850613 10.976835 -59.278106 9.587408 17.155151 -23.198012 -57.634901 8.671993 23.126359 12.197071 -64.027847 13.010067 0.728585 4.828756 61.277818 -3.945489 21.996418 16.051491 47.356351 -0.435494 4.209960 -5.431852 -50.782920 
0.013589 0.233983 1.013217 80.155897 -1.027644 84.085602 5.428383 4.636251 8.462032 -3.758003 -0.051619 2.097925 -2.173267 16.794581 -4.132433 0.000000 -0.000000 0.000000 -2.264006 -4.306287 2.105795 0.995890 0.743135 7.319909 4.282216 -9.064936 -4.311892 0.000000 -0.000000 0.000000 -0.749414 -0.345235 12.360572 -1.873436 -0.946272 3.922233 1.253383 -0.382593 3.400861 -6.995161 -2.552600 3.218525 4.368357 8.809461 8.011730 -16.436395 5.916711 10.818009 -59.387869 9.582382 17.162095 -22.737217 -57.336729 8.952738 22.974219 11.733121 -63.563671 12.826427 0.540564 4.806433 61.615091 -4.035184 21.921988 15.722007 47.409325 -0.365516 4.272538 -5.321408 -51.189458 
0.013549 0.232485 1.013206 80.013449 -1.024988 84.071716 5.536000 4.813656 8.498602 -3.727712 -0.030193 2.155092 -2.245894 16.711996 -4.139650 0.000000 -0.000000 0.000000 -2.213447 -4.307335 2.115848 1.078843 0.692435 7.355671 4.277235 -8.997536 -4.284562 0.000000 -0.000000 0.000000 -0.600738 -0.357787 12.340665 -1.874582 -0.845536 4.098864 1.174320 -0.361911 3.360462 -6.733347 -2.216797 3.344023 4.335428 8.979522 8.356522 -16.584670 6.042903 10.768151 -59.423221 9.543157 16.923665 -22.002965 -57.078768 9.192578 22.270764 10.710502 -62.878489 12.792496 0.345989 4.776038 61.751922 -4.135798 21.650437 15.479708 47.423494 -0.087485 4.709155 -4.860526 -51.120233 
0.013243 0.230524 1.013157 79.987583 -1.054947 84.075500 5.615595 4.724690 8.510937 -3.727737 0.005048 2.149912 -2.323773 16.735236 -4.141626 0.000000 -0.000000 0.000000 -2.125670 -4.277694 2.128373 1.115277 0.725952 7.337786 4.174531 -9.013633 -4.348822 0.000000 -0.000000 0.000000 -0.553024 -0.380052 12.351234 -1.884163 -0.818528 4.229931 1.138139 -0.370386 3.330946 -6.507012 -1.947298 3.447066 4.325949 9.101874 8.599830 -16.621800 6.232317 10.672233 -59.484139 9.506123 16.720943 -21.310987 -56.860210 9.500243 21.891266 10.079944 -62.203038 12.743493 0.197350 4.747203 61.948490 -4.138569 21.538700 15.246788 47.343566 0.203154 4.856558 -4.641703 -51.004384 
0.013292 0.228692 1.013131 80.000765 -1.051621 84.052247 5.720054 4.740674 8.510053 -3.712953 -0.041061 2.218212 -2.396107 16.743840 -4.163022 0.000000 -0.000000 0.000000 -2.007338 -4.264864 2.189881 1.089279 0.696720 7.298115 4.154865 -9.032335 -4.299419 0.000000 -0.000000 0.000000 -0.505500 -0.402021 12.359152 -1.873740 -0.795133 4.322376 1.132721 -0.392877 3.324479 -6.360449 -1.838383 3.514902 4.390805 9.211509 8.823019 -16.719196 6.335036 10.648169 -59.587221 9.542719 16.608627 -20.614344 -56.877442 9.316325 21.941188 10.015806 -61.854144 12.712429 0.080663 4.604752 62.042449 -4.213089 21.460782 15.078277 47.204256 0.384946 4.808549 -4.530609 -51.027465 
0.013635 0.226942 1.012934 79.976096 -1.041025 84.022535 5.820860 4.855115 8.575349 -3.646217 -0.121447 2.198864 -2.441313 16.670788 -4.164652 0.000000 -0.000000 0.000000 -1.934040 -4.256129 2.248976 1.165684 0.658300 7.309193 4.044799 -8.997046 -4.397650 0.000000 -0.000000 0.000000 -0.378655 -0.442359 12.324080 -1.909934 -0.736835 4.446065 1.043805 -0.438247 3.334595 -6.249759 -1.690548 3.511062 4.421631 9.308053 9.088713 -16.788234 6.498382 10.644285 -59.682839 9.591429 16.446153 -20.111169 -57.045131 8.965935 21.944066 9.673531 -61.528355 12.710918 -0.025256 4.569912 62.127706 -4.239917 21.347256 14.861428 47.179359 0.279581 4.933944 -4.324086 -50.858823 
0.013625 0.224749 1.012874 79.954928 -1.042427 83.936672 5.931723 4.875040 8.659834 -3.606151 -0.086355 2.258869 -2.484465 16.665191 -4.226928 0.000000 -0.000000 0.000000 -1.814858 -4.289125 2.315305 1.165172 0.689239 7.371095 3.969774 -8.955657 -4.450660 0.000000 -0.000000 0.000000 -0.336974 -0.523786 12.363212 -1.960943 -0.710689 4.659251 0.984653 -0.348907 3.227598 -6.103770 -1.468578 3.539409 4.472883 9.424165 9.509203 -16.797273 6.608172 10.571365 -59.785446 9.626752 16.280428 -19.535083 -57.136538 8.945196 21.817361 9.408442 -61.096883 12.741140 -0.090574 4.566281 62.174271 -4.206046 21.161171 14.706294 47.137603 0.409028 5.004102 -4.208282 -50.382984 
0.013474 0.223275 1.012722 79.955059 -1.079604 83.936504 5.954320 4.717355 8.625010 -3.599204 0.031908 2.340246 -2.570704 16.625428 -4.208128 0.000000 -0.000000 0.000000 -1.775178 -4.112244 2.219763 1.214109 0.609246 7.561840 3.939852 -9.012042 -4.566560 0.000000 -0.000000 0.000000 -0.353267 -0.528876 12.339088 -1.974193 -0.646258 4.781699 0.956036 -0.397083 3.254551 -6.020548 -1.414984 3.431736 4.349627 9.303704 9.760907 -16.884095 6.659010 10.622538 -59.951058 9.602655 16.199924 -18.569285 -57.298223 8.575817 21.657213 9.083728 -60.759843 12.727755 -0.098929 4.532375 62.209587 -4.117085 21.118093 14.553471 47.063068 0.538645 5.180757 -4.176257 -50.438970 
0.013807 0.221746 1.012595 79.933063 -1.083603 83.874373 6.033847 4.788178 8.741157 -3.566291 0.026481 2.298617 -2.623730 16.604178 -4.192202 0.000000 -0.000000 0.000000 -1.709208 -4.140879 2.278552 1.240836 0.620784 7.627354 3.860643 -9.016395 -4.634066 0.000000 -0.000000 0.000000 -0.310233 -0.566459 12.271743 -2.033867 -0.616413 5.061524 0.911595 -0.456025 3.185928 -5.972954 -1.278173 3.376699 4.261036 9.483517 9.918290 -17.006562 6.696306 10.663883 -60.008113 9.724775 16.034189 -17.834810 -57.619088 8.423739 21.488623 8.891308 -60.320187 12.757054 0.031852 4.561125 62.194622 -3.982703 21.039322 14.405843 46.891907 0.659937 5.197696 -4.019642 -49.915903 
0.014227 0.220124 1.012420 79.856358 -1.067723 83.815846 6.162422 4.861478 8.891133 -3.536852 -0.039825 2.239320 -2.685627 16.582129 -4.155288 0.000000 -0.000000 0.000000 -1.600661 -4.128977 2.398224 1.240913 0.674379 7.610259 3.792676 -8.965948 -4.699416 0.000000 -0.000000 0.000000 -0.315457 -0.586793 12.245406 -2.070477 -0.544236 5.244128 0.876080 -0.388250 3.105393 -5.896523 -1.157854 3.437438 4.238041 9.421050 9.977523 -17.063791 6.838707 10.636394 -60.066521 9.773754 15.889206 -17.178019 -57.894121 8.531331 21.055792 8.770813 -60.051611 12.783803 -0.027431 4.564260 62.288673 -3.857555 20.894637 14.163555 46.666375 0.943389 5.367639 -4.061926 -49.521182 
0.014127 0.218667 1.012302 79.838646 -1.024826 83.818948 6.289113 4.861506 8.876822 -3.517902 0.008362 2.249055 -2.758799 16.573159 -4.138363 0.000000 -0.000000 0.000000 -1.445204 -4.097368 2.367293 1.231895 0.639418 7.642930 3.704602 -8.970701 -4.692938 0.000000 -0.000000 0.000000 -0.311937 -0.650362 12.254580 -2.113391 -0.532731 5.313688 0.834526 -0.366436 3.081971 -5.783143 -1.020554 3.363333 4.174279 9.453862 10.091674 -17.144719 6.905161 10.620151 -60.149836 9.779086 15.712461 -16.402492 -58.154185 8.273886 21.091012 8.631061 -59.626884 12.827972 0.020983 4.562886 62.367911 -3.653911 20.850561 13.871831 46.561189 1.200844 4.813286 -4.088873 -48.311831 
